<svg xmlns="http://www.w3.org/2000/svg" fill-rule="evenodd" stroke-linejoin="round" stroke-miterlimit="1.414" clip-rule="evenodd" viewBox="0 0 96 96" id="music"><path fill-rule="nonzero" d="M48.212 17.722c17.067.162 32.598 14.91 32.655 32.856l-6 .02c-.037-11.61-8.341-22.681-19.515-25.857-15.718-4.469-34.163 8.058-34.219 25.857l-6-.02c.054-16.938 14.685-32.685 32.655-32.856h.424Z"></path><path fill-rule="nonzero" d="M18.299 47.593c1.535.113 2.805 1.407 2.834 2.995v7.373l4.069.002c2.983.166 4.002 5.774 0 5.996-4.272.079-9.859.895-10.067-2.888-.066-3.606-.381-7.247.016-10.815.171-1.531 1.332-2.731 3.148-2.663Z"></path><path fill-rule="nonzero" d="M31.725 47.589c2.539.097 4.751 2.258 4.85 4.85.071 5.645.001 11.291.001 16.936-.033 2.571-2.219 4.857-4.851 4.957-3.929.05-8.69.672-8.786-2.999V50.588c.013-.511.058-.653.147-.927.883-2.718 5.152-2.116 8.639-2.072zm-1.149 5.999h-1.637v14.745h1.637V53.588zm47.457-5.889c1.5.111 2.748 1.369 2.832 2.884.067 3.606.372 7.285-.016 10.812-.156 1.422-1.39 2.589-2.872 2.67-4.099.075-9.877 1.269-10.104-2.832-.09-1.622 1.291-3.134 2.995-3.166h3.999l.002-7.484c.091-1.631 1.247-2.955 3.164-2.884z"></path><path fill-rule="nonzero" d="M70.218 47.592c.51.04.649.092.918.195 1.141.438 1.887 1.348 1.925 2.801v20.745c-.015.579-.076.753-.199 1.075-.439 1.142-1.348 1.887-2.801 1.925h-5.678c-2.571-.033-4.857-2.217-4.958-4.85-.071-5.645-.001-11.291-.001-16.936.033-2.571 2.219-4.858 4.851-4.958 1.981-.025 3.963-.049 5.943.003Zm-3.157 20.741V53.588h-1.637v14.745h1.637Z"></path><path fill-rule="nonzero" d="M70.546 3c11.645.111 22.26 10.16 22.452 22.309.144 15.127.144 30.255 0 45.382-.184 11.612-10.158 22.115-22.307 22.307-15.127.144-30.255.144-45.382 0C13.697 92.814 3.194 82.84 3.002 70.691a2383.765 2383.765 0 0 1 0-45.382C3.186 13.697 13.16 3.194 25.309 3.002 40.387 2.858 55.467 2.953 70.546 3ZM25.605 9C16.992 9.027 9.087 16.434 9 25.492c-.047 15.041-.142 30.083.001 45.123.136 8.549 7.547 16.299 16.491 16.385 15.041.047 30.083.142 45.123-.001 8.568-.136 16.299-7.547 16.385-16.491.047-15.041.142-30.083-.001-45.123-.136-8.568-7.547-16.3-16.491-16.385-14.968-.047-29.936 0-44.903 0Z"></path></svg>