<svg xmlns="http://www.w3.org/2000/svg" enable-background="new 0 0 32 32" viewBox="0 0 32 32" id="charging-plug"><path d="M16,31.5c0.83002,0,1.5-0.67004,1.5-1.5v-6.40002c4.34003-0.71997,7.65997-4.47998,7.65997-9.02002V10.37h1.14001c0.82001,0,1.5-0.66998,1.5-1.5s-0.67999-1.5-1.5-1.5h-3.51996V2c0-0.83002-0.67004-1.5-1.5-1.5c-0.83002,0-1.5,0.66998-1.5,1.5v5.37h-7.56006V2c0-0.83002-0.66998-1.5-1.5-1.5c-0.82996,0-1.5,0.66998-1.5,1.5v5.37H5.70001c-0.82001,0-1.5,0.66998-1.5,1.5s0.67999,1.5,1.5,1.5h1.14001v4.20996c0,4.54004,3.31995,8.30005,7.65997,9.02002V30C14.5,30.82996,15.16998,31.5,16,31.5z"></path></svg>